<mxfile host="app.diagrams.net" agent="Mozilla/5.0 (Windows NT 10.0; Win64; x64) AppleWebKit/537.36 (KHTML, like Gecko) Chrome/131.0.0.0 Safari/537.36 Edg/131.0.0.0" version="25.0.1">
  <diagram name="Page-1" id="aT5fAVBO0f5y_4cfO-9y">
    <mxGraphModel dx="713" dy="392" grid="1" gridSize="10" guides="1" tooltips="1" connect="1" arrows="1" fold="1" page="1" pageScale="1" pageWidth="850" pageHeight="1100" math="0" shadow="0">
      <root>
        <mxCell id="0" />
        <mxCell id="1" parent="0" />
        <mxCell id="V_O9nNoi_f0DaAfSa2QA-27" value="" style="edgeStyle=orthogonalEdgeStyle;rounded=0;orthogonalLoop=1;jettySize=auto;html=1;" edge="1" parent="1" source="V_O9nNoi_f0DaAfSa2QA-1" target="V_O9nNoi_f0DaAfSa2QA-2">
          <mxGeometry relative="1" as="geometry" />
        </mxCell>
        <mxCell id="V_O9nNoi_f0DaAfSa2QA-30" style="edgeStyle=orthogonalEdgeStyle;rounded=0;orthogonalLoop=1;jettySize=auto;html=1;" edge="1" parent="1" source="V_O9nNoi_f0DaAfSa2QA-1" target="V_O9nNoi_f0DaAfSa2QA-4">
          <mxGeometry relative="1" as="geometry">
            <Array as="points">
              <mxPoint x="410" y="120" />
              <mxPoint x="590" y="120" />
            </Array>
          </mxGeometry>
        </mxCell>
        <mxCell id="V_O9nNoi_f0DaAfSa2QA-1" value="Activation Code" style="rounded=1;whiteSpace=wrap;html=1;fillColor=#3399FF;" vertex="1" parent="1">
          <mxGeometry x="330" y="30" width="160" height="50" as="geometry" />
        </mxCell>
        <mxCell id="V_O9nNoi_f0DaAfSa2QA-31" style="edgeStyle=orthogonalEdgeStyle;rounded=0;orthogonalLoop=1;jettySize=auto;html=1;" edge="1" parent="1" source="V_O9nNoi_f0DaAfSa2QA-2" target="V_O9nNoi_f0DaAfSa2QA-5">
          <mxGeometry relative="1" as="geometry" />
        </mxCell>
        <mxCell id="V_O9nNoi_f0DaAfSa2QA-2" value="Correct Activation Code:&lt;div&gt;isVerfied property set to true&lt;/div&gt;&lt;div&gt;navigated to next step&lt;/div&gt;" style="rounded=1;whiteSpace=wrap;html=1;fillColor=#4DFF76;" vertex="1" parent="1">
          <mxGeometry x="160" y="160" width="180" height="80" as="geometry" />
        </mxCell>
        <mxCell id="V_O9nNoi_f0DaAfSa2QA-4" value="Incorrect Activation Code:&lt;div&gt;isVerfied property remains false&lt;/div&gt;&lt;div&gt;error line display&lt;/div&gt;" style="rounded=1;whiteSpace=wrap;html=1;fillColor=#FF9999;" vertex="1" parent="1">
          <mxGeometry x="505" y="160" width="180" height="80" as="geometry" />
        </mxCell>
        <mxCell id="V_O9nNoi_f0DaAfSa2QA-41" style="edgeStyle=orthogonalEdgeStyle;rounded=0;orthogonalLoop=1;jettySize=auto;html=1;entryX=0.469;entryY=0;entryDx=0;entryDy=0;entryPerimeter=0;" edge="1" parent="1" source="V_O9nNoi_f0DaAfSa2QA-8" target="V_O9nNoi_f0DaAfSa2QA-12">
          <mxGeometry relative="1" as="geometry">
            <mxPoint x="240" y="580" as="targetPoint" />
          </mxGeometry>
        </mxCell>
        <mxCell id="V_O9nNoi_f0DaAfSa2QA-9" value="Incorrect DOB entered:&lt;div&gt;OTP object will be null&lt;/div&gt;&lt;div&gt;error line display&lt;/div&gt;" style="rounded=1;whiteSpace=wrap;html=1;fillColor=#FF9999;" vertex="1" parent="1">
          <mxGeometry x="540" y="480" width="180" height="80" as="geometry" />
        </mxCell>
        <mxCell id="V_O9nNoi_f0DaAfSa2QA-12" value="OTP Verification" style="rounded=1;whiteSpace=wrap;html=1;fillColor=#3399FF;" vertex="1" parent="1">
          <mxGeometry x="345" y="630" width="160" height="50" as="geometry" />
        </mxCell>
        <mxCell id="V_O9nNoi_f0DaAfSa2QA-43" value="" style="edgeStyle=orthogonalEdgeStyle;rounded=0;orthogonalLoop=1;jettySize=auto;html=1;" edge="1" parent="1" source="V_O9nNoi_f0DaAfSa2QA-13" target="V_O9nNoi_f0DaAfSa2QA-42">
          <mxGeometry relative="1" as="geometry" />
        </mxCell>
        <mxCell id="V_O9nNoi_f0DaAfSa2QA-13" value="Correct OTP Entered:&lt;div&gt;isVerfied property set to true&lt;/div&gt;&lt;div&gt;&lt;span style=&quot;background-color: initial;&quot;&gt;navigated to next step&lt;/span&gt;&lt;/div&gt;" style="rounded=1;whiteSpace=wrap;html=1;fillColor=#4DFF76;" vertex="1" parent="1">
          <mxGeometry x="150" y="800" width="180" height="80" as="geometry" />
        </mxCell>
        <mxCell id="V_O9nNoi_f0DaAfSa2QA-19" value="Incorrect Activation Code:&lt;div&gt;isVerfied property remains false&lt;/div&gt;&lt;div&gt;error line display&lt;/div&gt;" style="whiteSpace=wrap;html=1;rounded=1;fillColor=#FF9999;" vertex="1" parent="1">
          <mxGeometry x="560" y="800" width="190" height="80" as="geometry" />
        </mxCell>
        <mxCell id="V_O9nNoi_f0DaAfSa2QA-32" value="" style="edgeStyle=orthogonalEdgeStyle;rounded=0;orthogonalLoop=1;jettySize=auto;html=1;entryX=0.611;entryY=0.125;entryDx=0;entryDy=0;entryPerimeter=0;" edge="1" parent="1" target="V_O9nNoi_f0DaAfSa2QA-5">
          <mxGeometry relative="1" as="geometry">
            <mxPoint x="410" y="360" as="sourcePoint" />
            <mxPoint x="629.98" y="460" as="targetPoint" />
            <Array as="points" />
          </mxGeometry>
        </mxCell>
        <mxCell id="V_O9nNoi_f0DaAfSa2QA-33" style="edgeStyle=orthogonalEdgeStyle;rounded=0;orthogonalLoop=1;jettySize=auto;html=1;" edge="1" parent="1" source="V_O9nNoi_f0DaAfSa2QA-5" target="V_O9nNoi_f0DaAfSa2QA-9">
          <mxGeometry relative="1" as="geometry">
            <Array as="points">
              <mxPoint x="410" y="400" />
              <mxPoint x="630" y="400" />
            </Array>
          </mxGeometry>
        </mxCell>
        <mxCell id="V_O9nNoi_f0DaAfSa2QA-35" style="edgeStyle=orthogonalEdgeStyle;rounded=0;orthogonalLoop=1;jettySize=auto;html=1;" edge="1" parent="1" source="V_O9nNoi_f0DaAfSa2QA-5" target="V_O9nNoi_f0DaAfSa2QA-8">
          <mxGeometry relative="1" as="geometry">
            <Array as="points">
              <mxPoint x="410" y="400" />
              <mxPoint x="230" y="400" />
            </Array>
          </mxGeometry>
        </mxCell>
        <mxCell id="V_O9nNoi_f0DaAfSa2QA-5" value="DOB Verification" style="rounded=1;whiteSpace=wrap;html=1;fillColor=#3399FF;" vertex="1" parent="1">
          <mxGeometry x="330" y="320" width="160" height="50" as="geometry" />
        </mxCell>
        <mxCell id="V_O9nNoi_f0DaAfSa2QA-39" style="edgeStyle=orthogonalEdgeStyle;rounded=0;orthogonalLoop=1;jettySize=auto;html=1;entryX=0.526;entryY=0;entryDx=0;entryDy=0;entryPerimeter=0;" edge="1" parent="1" source="V_O9nNoi_f0DaAfSa2QA-12" target="V_O9nNoi_f0DaAfSa2QA-19">
          <mxGeometry relative="1" as="geometry">
            <Array as="points">
              <mxPoint x="425" y="720" />
              <mxPoint x="660" y="720" />
            </Array>
          </mxGeometry>
        </mxCell>
        <mxCell id="V_O9nNoi_f0DaAfSa2QA-40" style="edgeStyle=orthogonalEdgeStyle;rounded=0;orthogonalLoop=1;jettySize=auto;html=1;entryX=0.333;entryY=0;entryDx=0;entryDy=0;entryPerimeter=0;" edge="1" parent="1" source="V_O9nNoi_f0DaAfSa2QA-12" target="V_O9nNoi_f0DaAfSa2QA-13">
          <mxGeometry relative="1" as="geometry">
            <Array as="points">
              <mxPoint x="425" y="720" />
              <mxPoint x="210" y="720" />
            </Array>
          </mxGeometry>
        </mxCell>
        <mxCell id="V_O9nNoi_f0DaAfSa2QA-45" value="" style="edgeStyle=orthogonalEdgeStyle;rounded=0;orthogonalLoop=1;jettySize=auto;html=1;" edge="1" parent="1" source="V_O9nNoi_f0DaAfSa2QA-42" target="V_O9nNoi_f0DaAfSa2QA-44">
          <mxGeometry relative="1" as="geometry" />
        </mxCell>
        <mxCell id="V_O9nNoi_f0DaAfSa2QA-47" value="" style="edgeStyle=orthogonalEdgeStyle;rounded=0;orthogonalLoop=1;jettySize=auto;html=1;" edge="1" parent="1" source="V_O9nNoi_f0DaAfSa2QA-42" target="V_O9nNoi_f0DaAfSa2QA-46">
          <mxGeometry relative="1" as="geometry" />
        </mxCell>
        <mxCell id="V_O9nNoi_f0DaAfSa2QA-42" value="set up password&amp;nbsp;" style="whiteSpace=wrap;html=1;rounded=1;fillColor=#4DFF76;" vertex="1" parent="1">
          <mxGeometry x="150" y="1000" width="180" height="60" as="geometry" />
        </mxCell>
        <mxCell id="V_O9nNoi_f0DaAfSa2QA-44" value="Signup call&lt;div&gt;Ingestion service&lt;/div&gt;" style="whiteSpace=wrap;html=1;rounded=1;fillColor=#4DFF76;" vertex="1" parent="1">
          <mxGeometry x="155" y="1150" width="170" height="60" as="geometry" />
        </mxCell>
        <mxCell id="V_O9nNoi_f0DaAfSa2QA-46" value="display line error to match both&lt;div&gt;also check password validation&lt;/div&gt;" style="whiteSpace=wrap;html=1;rounded=1;fillColor=#FF9999;" vertex="1" parent="1">
          <mxGeometry x="565" y="1000" width="195" height="60" as="geometry" />
        </mxCell>
        <mxCell id="V_O9nNoi_f0DaAfSa2QA-48" value="If confirm password and&amp;nbsp;&lt;div&gt;password doesn&#39;t match&lt;/div&gt;" style="text;html=1;align=center;verticalAlign=middle;resizable=0;points=[];autosize=1;strokeColor=none;fillColor=none;" vertex="1" parent="1">
          <mxGeometry x="370" y="983" width="150" height="40" as="geometry" />
        </mxCell>
        <mxCell id="V_O9nNoi_f0DaAfSa2QA-8" value="Correct DOB Entered:&lt;div&gt;verify-dob endpoint hit&lt;/div&gt;&lt;div&gt;OTP will send to user on mail&lt;/div&gt;" style="rounded=1;whiteSpace=wrap;html=1;fillColor=#4DFF76;" vertex="1" parent="1">
          <mxGeometry x="150" y="480" width="180" height="80" as="geometry" />
        </mxCell>
      </root>
    </mxGraphModel>
  </diagram>
</mxfile>
